<svg xmlns="http://www.w3.org/2000/svg" viewBox="0 0 1080 1080">
  <g>
    <path d="M1062.06,533.9c0-70.17-52.51-128.28-120.29-137.19V349.2c0-116.03-94.39-210.43-210.42-210.43H349.21
      c-116.03,0-210.42,94.4-210.42,210.43v47.42c-68.13,8.59-121,66.86-121,137.28c0,70.42,52.87,128.68,121,137.28v60.16
      c0,116.03,94.39,210.43,210.42,210.43h382.14c116.03,0,210.42-94.4,210.42-210.43v-60.25
      C1009.55,662.18,1062.06,604.07,1062.06,533.9z M941.77,436.01c46.3,8.56,81.5,49.15,81.5,97.89c0,48.73-35.2,89.33-81.5,97.89
      V436.01z M902.98,349.2v382.13c0,94.64-76.99,171.63-171.63,171.63H349.21c-94.64,0-171.63-77-171.63-171.63V349.2
      c0-94.64,76.99-171.63,171.63-171.63h382.14C825.99,177.57,902.98,254.56,902.98,349.2z M138.79,631.9
      c-46.64-8.27-82.21-49.01-82.21-98c0-48.98,35.56-89.72,82.21-98V631.9z"/>
    <path d="M693.2,850.35H386.65c-86.22,0-156.36-70.24-156.36-156.57V386.76c0-86.33,70.14-156.57,156.36-156.57H693.2
      c86.22,0,156.36,70.24,156.36,156.57v307.02C849.56,780.11,779.42,850.35,693.2,850.35z M386.65,267.53
      c-65.62,0-119.01,53.48-119.01,119.22v307.02c0,65.74,53.39,119.22,119.01,119.22H693.2c65.62,0,119.01-53.48,119.01-119.22
      V386.76c0-65.74-53.39-119.22-119.01-119.22H386.65z"/>
    <g>
      <g>
        <path d="M484.03,481.78c0-39.03-31.75-70.78-70.78-70.78c-39.03,0-70.78,31.75-70.78,70.78c0,39.03,31.75,70.78,70.78,70.78
          C452.28,552.56,484.03,520.81,484.03,481.78z M447.64,481.78c0,18.96-15.42,34.38-34.38,34.38
          c-18.96,0-34.38-15.42-34.38-34.38c0-18.96,15.42-34.38,34.38-34.38C432.21,447.4,447.64,462.82,447.64,481.78z"/>
      </g>
      <g>
        <path d="M666.6,411c-39.03,0-70.78,31.75-70.78,70.78c0,39.03,31.75,70.78,70.78,70.78s70.78-31.75,70.78-70.78
          C737.37,442.75,705.63,411,666.6,411z M700.98,481.78c0,18.96-15.42,34.38-34.38,34.38c-18.96,0-34.38-15.42-34.38-34.38
          c0-18.96,15.42-34.38,34.38-34.38C685.55,447.4,700.98,462.82,700.98,481.78z"/>
      </g>
      <g>
        <path d="M629.76,621.95c-26.28,26.58-55.04,40.08-85.63,40.13c-55.37,0-100.79-44.5-101.21-44.92
          c-7.05-7.12-18.59-7.18-25.72-0.14c-3.46,3.42-5.38,7.98-5.4,12.84c-0.03,4.86,1.84,9.44,5.26,12.9
          c2.25,2.27,55.94,55.72,127.07,55.72c40.58,0,78.1-17.14,111.52-50.93c7.05-7.13,6.99-18.68-0.14-25.73
          C648.36,614.75,636.82,614.82,629.76,621.95z"/>
      </g>
    </g>
  </g>
</svg>
